<mxfile host="app.diagrams.net" modified="2024-05-28T03:43:54.096Z" agent="Mozilla/5.0 (Windows NT 10.0; Win64; x64) AppleWebKit/537.36 (KHTML, like Gecko) Chrome/125.0.0.0 Safari/537.36" etag="VQpdL_goi3XkdyOr1kyr" version="24.4.4" type="github">
  <diagram name="Page-1" id="SyXa-uzE85n85rMRMzLK">
    <mxGraphModel dx="2340" dy="868" grid="1" gridSize="10" guides="1" tooltips="1" connect="1" arrows="1" fold="1" page="1" pageScale="1" pageWidth="827" pageHeight="1169" math="0" shadow="0">
      <root>
        <mxCell id="0" />
        <mxCell id="1" parent="0" />
        <mxCell id="1Izx30Ujem4wy27GTAxK-1" value="&lt;b&gt;&lt;font style=&quot;font-size: 14px;&quot;&gt;BatchJobProvider&lt;/font&gt;&lt;/b&gt;" style="rounded=0;whiteSpace=wrap;html=1;dashed=1;" vertex="1" parent="1">
          <mxGeometry x="170" y="70" width="810" height="590" as="geometry" />
        </mxCell>
        <mxCell id="1Izx30Ujem4wy27GTAxK-11" style="edgeStyle=orthogonalEdgeStyle;rounded=0;orthogonalLoop=1;jettySize=auto;html=1;exitX=1;exitY=0.25;exitDx=0;exitDy=0;entryX=0;entryY=0.5;entryDx=0;entryDy=0;" edge="1" parent="1" source="1Izx30Ujem4wy27GTAxK-3" target="1Izx30Ujem4wy27GTAxK-10">
          <mxGeometry relative="1" as="geometry" />
        </mxCell>
        <mxCell id="1Izx30Ujem4wy27GTAxK-14" style="edgeStyle=orthogonalEdgeStyle;rounded=0;orthogonalLoop=1;jettySize=auto;html=1;exitX=1;exitY=0.75;exitDx=0;exitDy=0;entryX=0;entryY=0.5;entryDx=0;entryDy=0;" edge="1" parent="1" source="1Izx30Ujem4wy27GTAxK-3" target="1Izx30Ujem4wy27GTAxK-12">
          <mxGeometry relative="1" as="geometry" />
        </mxCell>
        <mxCell id="1Izx30Ujem4wy27GTAxK-15" style="edgeStyle=orthogonalEdgeStyle;rounded=0;orthogonalLoop=1;jettySize=auto;html=1;exitX=0.75;exitY=1;exitDx=0;exitDy=0;entryX=0;entryY=0.25;entryDx=0;entryDy=0;" edge="1" parent="1" source="1Izx30Ujem4wy27GTAxK-3" target="1Izx30Ujem4wy27GTAxK-13">
          <mxGeometry relative="1" as="geometry" />
        </mxCell>
        <mxCell id="1Izx30Ujem4wy27GTAxK-3" value="ProcessBatch" style="rounded=1;whiteSpace=wrap;html=1;" vertex="1" parent="1">
          <mxGeometry x="180" y="330" width="160" height="70" as="geometry" />
        </mxCell>
        <mxCell id="1Izx30Ujem4wy27GTAxK-4" value="&lt;b&gt;&lt;font style=&quot;font-size: 14px;&quot;&gt;JobController&lt;/font&gt;&lt;/b&gt;" style="rounded=0;whiteSpace=wrap;html=1;dashed=1;" vertex="1" parent="1">
          <mxGeometry x="-210" y="230" width="300" height="270" as="geometry" />
        </mxCell>
        <mxCell id="1Izx30Ujem4wy27GTAxK-9" style="edgeStyle=orthogonalEdgeStyle;rounded=0;orthogonalLoop=1;jettySize=auto;html=1;exitX=1;exitY=0.75;exitDx=0;exitDy=0;entryX=0;entryY=0.25;entryDx=0;entryDy=0;" edge="1" parent="1" source="1Izx30Ujem4wy27GTAxK-5" target="1Izx30Ujem4wy27GTAxK-3">
          <mxGeometry relative="1" as="geometry" />
        </mxCell>
        <mxCell id="1Izx30Ujem4wy27GTAxK-5" value="CreateBatch" style="rounded=1;whiteSpace=wrap;html=1;" vertex="1" parent="1">
          <mxGeometry x="-120" y="260" width="160" height="70" as="geometry" />
        </mxCell>
        <mxCell id="1Izx30Ujem4wy27GTAxK-8" style="edgeStyle=orthogonalEdgeStyle;rounded=0;orthogonalLoop=1;jettySize=auto;html=1;exitX=1;exitY=0.25;exitDx=0;exitDy=0;entryX=0;entryY=0.75;entryDx=0;entryDy=0;" edge="1" parent="1" source="1Izx30Ujem4wy27GTAxK-6" target="1Izx30Ujem4wy27GTAxK-3">
          <mxGeometry relative="1" as="geometry" />
        </mxCell>
        <mxCell id="1Izx30Ujem4wy27GTAxK-6" value="UpdateBatch" style="rounded=1;whiteSpace=wrap;html=1;" vertex="1" parent="1">
          <mxGeometry x="-120" y="400" width="160" height="70" as="geometry" />
        </mxCell>
        <mxCell id="1Izx30Ujem4wy27GTAxK-10" value="Validate" style="rounded=1;whiteSpace=wrap;html=1;" vertex="1" parent="1">
          <mxGeometry x="510" y="240" width="160" height="70" as="geometry" />
        </mxCell>
        <mxCell id="1Izx30Ujem4wy27GTAxK-12" value="Create" style="rounded=1;whiteSpace=wrap;html=1;" vertex="1" parent="1">
          <mxGeometry x="510" y="400" width="160" height="70" as="geometry" />
        </mxCell>
        <mxCell id="1Izx30Ujem4wy27GTAxK-13" value="Update" style="rounded=1;whiteSpace=wrap;html=1;" vertex="1" parent="1">
          <mxGeometry x="510" y="530" width="160" height="70" as="geometry" />
        </mxCell>
        <mxCell id="1Izx30Ujem4wy27GTAxK-16" value="" style="strokeWidth=2;html=1;shape=mxgraph.flowchart.annotation_2;align=left;labelPosition=right;pointerEvents=1;" vertex="1" parent="1">
          <mxGeometry x="670" y="360" width="110" height="125" as="geometry" />
        </mxCell>
        <mxCell id="1Izx30Ujem4wy27GTAxK-17" value="Create Consignments&lt;div&gt;Create Packages&lt;/div&gt;&lt;div&gt;Create Job Assets&lt;/div&gt;&lt;div&gt;Create Rules&lt;/div&gt;&lt;div&gt;CreateCancelJobExpiries&lt;/div&gt;&lt;div&gt;CreateEvents&lt;/div&gt;&lt;div&gt;QueueJobGeocoding&lt;/div&gt;" style="text;html=1;align=center;verticalAlign=middle;whiteSpace=wrap;rounded=0;" vertex="1" parent="1">
          <mxGeometry x="750" y="370" width="170" height="110" as="geometry" />
        </mxCell>
      </root>
    </mxGraphModel>
  </diagram>
</mxfile>
